<svg xmlns="http://www.w3.org/2000/svg" viewBox="0 0 400 300">
  <rect width="400" height="300" fill="#0d1120"/>
  <circle cx="200" cy="145" r="22" fill="#6366f1"/>
  <circle cx="200" cy="145" r="4" fill="white" opacity="0.9"/>
  <circle cx="200" cy="145" r="52" fill="none" stroke="#6366f1" stroke-width="1.2" opacity="0.45"/>
  <circle cx="200" cy="145" r="85" fill="none" stroke="#6366f1" stroke-width="1" opacity="0.25"/>
  <circle cx="200" cy="145" r="118" fill="none" stroke="#6366f1" stroke-width="0.8" opacity="0.12"/>
  <line x1="200" y1="145" x2="128" y2="100" stroke="#f59e0b" stroke-width="1.2" opacity="0.6"/>
  <line x1="200" y1="145" x2="272" y2="104" stroke="#f59e0b" stroke-width="1.2" opacity="0.6"/>
  <line x1="200" y1="145" x2="285" y2="190" stroke="#f59e0b" stroke-width="1.2" opacity="0.6"/>
  <line x1="200" y1="145" x2="124" y2="196" stroke="#ef4444" stroke-width="1.2" opacity="0.6"/>
  <line x1="200" y1="145" x2="200" y2="58" stroke="#ef4444" stroke-width="1.2" opacity="0.6"/>
  <line x1="200" y1="145" x2="108" y2="145" stroke="#6366f1" stroke-width="1" opacity="0.35"/>
  <line x1="200" y1="145" x2="292" y2="145" stroke="#6366f1" stroke-width="1" opacity="0.35"/>
  <circle cx="128" cy="100" r="11" fill="#f59e0b" opacity="0.9"/>
  <circle cx="272" cy="104" r="11" fill="#f59e0b" opacity="0.9"/>
  <circle cx="285" cy="190" r="11" fill="#f59e0b" opacity="0.9"/>
  <circle cx="124" cy="196" r="11" fill="#ef4444" opacity="0.9"/>
  <circle cx="200" cy="58" r="9" fill="#ef4444" opacity="0.9"/>
  <circle cx="108" cy="145" r="8" fill="#6366f1" opacity="0.45"/>
  <circle cx="292" cy="145" r="8" fill="#6366f1" opacity="0.45"/>
  <text x="200" y="278" text-anchor="middle" fill="#ADB2D4" font-size="13" font-family="sans-serif" opacity="0.6">impact propagation</text>
</svg>
